<svg width="24" height="24" viewBox="0 0 24 24" fill="none" xmlns="http://www.w3.org/2000/svg">
  <path d="M17.05 12.05c0-1.25-.49-2.48-1.39-3.38-.9-.9-2.13-1.39-3.38-1.39s-2.48.49-3.38 1.39c-.9.9-1.39 2.13-1.39 3.38s.49 2.48 1.39 3.38c.9.9 2.13 1.39 3.38 1.39s2.48-.49 3.38-1.39c.9-.9 1.39-2.13 1.39-3.38z" fill="#000"/>
  <path d="M12 1c-6.08 0-11 4.92-11 11s4.92 11 11 11 11-4.92 11-11S18.08 1 12 1zm4.05 14.05c-1.24 1.24-2.93 1.95-4.7 1.95s-3.46-.71-4.7-1.95c-1.24-1.24-1.95-2.93-1.95-4.7s.71-3.46 1.95-4.7c1.24-1.24 2.93-1.95 4.7-1.95s3.46.71 4.7 1.95c1.24 1.24 1.95 2.93 1.95 4.7s-.71 3.46-1.95 4.7z" fill="#000"/>
  <path d="M17.05 12.05c0-1.25-.49-2.48-1.39-3.38-.9-.9-2.13-1.39-3.38-1.39s-2.48.49-3.38 1.39c-.9.9-1.39 2.13-1.39 3.38s.49 2.48 1.39 3.38c.9.9 2.13 1.39 3.38 1.39s2.48-.49 3.38-1.39c.9-.9 1.39-2.13 1.39-3.38z" fill="#fff"/>
</svg>